<svg width="41" height="41" viewBox="0 0 41 41" fill="none" xmlns="http://www.w3.org/2000/svg">
<path d="M24.9378 25.7146C24.5847 25.7626 24.2221 25.7509 23.864 25.7524C22.5495 25.7564 21.2355 25.7502 19.921 25.7571C19.1087 25.7615 19.1706 25.6278 19.1684 26.4878C19.1618 28.7581 19.1607 31.0281 19.1574 33.2984C19.1574 33.4727 19.1574 33.647 19.1574 33.8529C17.7305 33.8195 16.5175 33.3841 15.4998 32.4806C14.2439 31.3657 13.5675 29.9645 13.5649 28.2648C13.5612 25.7406 13.5678 23.2165 13.5492 20.6924C13.5462 20.2745 13.6535 20.1335 14.0956 20.1361C17.3811 20.1533 20.6667 20.1416 23.9526 20.1449C25.0579 20.146 26.0054 19.2791 26.0306 18.2247C26.0596 17.0296 25.1817 16.0781 24.0017 16.0671C22.3741 16.0525 20.7458 16.0605 19.1178 16.0664C16.2894 16.0778 13.8107 13.8049 13.5726 10.9925C13.54 10.6061 13.5993 10.4384 14.0524 10.4413C17.4727 10.4622 20.893 10.4311 24.3126 10.4651C27.3963 10.4962 30.1311 12.6245 31.1558 15.4002C32.8698 20.0438 29.8494 25.0492 24.9378 25.7146ZM38.032 13.0409C37.8664 12.753 37.6866 12.4692 37.4914 12.1886C36.1546 10.267 34.7318 8.38451 32.9317 6.86827C31.0892 5.31651 28.8108 4.21559 26.5016 3.56112C26.4174 3.53695 26.0138 3.48567 25.9753 3.41975C25.6937 2.94144 25.3505 2.50378 24.9528 2.1207C23.9039 1.1117 22.5268 0.524616 21.0747 0.466751C19.261 0.3946 17.5306 1.115 16.3278 2.44262C15.5664 3.28314 15.0738 4.29799 14.8742 5.4077C14.8951 5.2916 13.9429 4.82721 13.8242 4.76715C12.8295 4.26503 11.7253 3.98816 10.6079 4.05078C9.60658 4.10645 8.39286 4.29726 7.48422 4.73162C7.04473 4.94148 6.65578 5.2363 6.24376 5.49304C5.49553 5.95926 4.83154 6.83861 4.39791 7.59013C3.96355 8.34276 3.66946 9.17339 3.52845 10.0308C3.19994 12.0279 3.69729 14.0155 4.87109 15.5452C3.81998 15.7672 2.84578 16.2579 2.04188 16.9824C0.823768 18.0804 0.129009 19.5834 0.0857923 21.2143C0.0418434 22.8708 0.630027 24.4218 1.7423 25.5806C2.09865 25.952 2.50335 26.2761 2.9432 26.5434C3.61965 26.954 3.72549 28.0502 4.002 28.731C4.40157 29.7136 4.89123 30.6593 5.47392 31.5456C9.26525 37.312 14.7182 40.3214 21.3244 40.321C21.9071 40.321 22.4997 40.2972 23.1 40.2504C25.6146 40.0533 27.982 39.3692 30.1366 38.217C32.2055 37.1106 34.0839 35.5683 35.7192 33.6335C38.1649 30.7402 39.6031 27.3525 39.9936 23.5644C40.1928 21.6322 40.1097 19.672 39.7167 17.7687C39.3658 16.0704 38.878 14.5066 38.032 13.0409Z" fill="#219EBC"/>
</svg>
