<svg width="237" height="237" viewBox="0 0 237 237" fill="none" xmlns="http://www.w3.org/2000/svg">
    <path d="M147.304 150.392C145.215 150.676 143.07 150.607 140.951 150.615C133.174 150.639 125.399 150.602 117.622 150.643C112.816 150.669 113.182 149.879 113.169 154.966C113.13 168.399 113.123 181.83 113.104 195.262C113.104 196.294 113.104 197.325 113.104 198.543C104.662 198.346 97.4848 195.769 91.463 190.423C84.0327 183.827 80.0304 175.537 80.0153 165.48C79.9936 150.546 80.0326 135.612 79.9221 120.677C79.9047 118.205 80.5396 117.371 83.1551 117.386C102.594 117.488 122.034 117.418 141.475 117.438C148.015 117.444 153.621 112.315 153.77 106.077C153.941 99.0061 148.747 93.3765 141.765 93.3115C132.136 93.2248 122.502 93.2725 112.87 93.3072C96.1348 93.3744 81.4692 79.9266 80.0608 63.2869C79.8679 61.0008 80.2189 60.0084 82.8994 60.0257C103.136 60.1492 123.373 59.965 143.605 60.1666C161.85 60.3507 178.031 72.9426 184.094 89.3656C194.235 116.84 176.364 146.455 147.304 150.392ZM224.777 75.4064C223.798 73.7032 222.734 72.0238 221.579 70.364C213.67 58.9943 205.251 47.8564 194.601 38.8854C183.699 29.7042 170.219 23.1905 156.557 19.3183C156.058 19.1753 153.67 18.8719 153.443 18.4818C151.777 15.6519 149.746 13.0624 147.393 10.7958C141.187 4.82602 133.039 1.35246 124.448 1.01009C113.717 0.583206 103.478 4.84552 96.3624 12.7005C91.8574 17.6736 88.9429 23.6781 87.7619 30.2438C87.8854 29.5569 82.2515 26.8092 81.5494 26.4539C75.6641 23.483 69.1309 21.8449 62.5197 22.2154C56.5954 22.5448 49.4143 23.6737 44.0382 26.2437C41.4379 27.4853 39.1366 29.2297 36.6989 30.7487C32.2719 33.5072 28.3433 38.7099 25.7777 43.1564C23.2077 47.6093 21.4677 52.5239 20.6334 57.5966C18.6897 69.4127 21.6324 81.1725 28.5773 90.2237C22.3583 91.5368 16.5943 94.4405 11.838 98.7266C4.63088 105.223 0.520257 114.116 0.264562 123.765C0.00453405 133.566 3.48458 142.743 10.0655 149.599C12.1739 151.796 14.5683 153.714 17.1707 155.296C21.173 157.725 21.7992 164.21 23.4353 168.239C25.7993 174.052 28.6965 179.647 32.144 184.891C54.5758 219.009 86.8388 236.815 125.925 236.812C129.373 236.812 132.879 236.672 136.431 236.394C151.309 235.228 165.315 231.181 178.063 224.364C190.304 217.817 201.418 208.693 211.093 197.245C225.564 180.126 234.073 160.082 236.383 137.67C237.562 126.238 237.07 114.64 234.745 103.379C232.669 93.331 229.783 84.0783 224.777 75.4064Z" fill="#219EBC"/>
</svg>
