<svg width="205" height="53" viewBox="0 0 205 53" fill="none" xmlns="http://www.w3.org/2000/svg">
<path d="M14.0747 12.7282C14.0703 13.7581 14.9028 14.6008 15.9261 14.6023C16.9647 14.6038 17.7983 13.783 17.7994 12.7568C17.8009 11.7039 16.9644 10.8557 15.9319 10.8637C14.9021 10.8721 14.0791 11.698 14.0747 12.7282Z" fill="#219EBC"/>
<path d="M5.44783 25.9431C5.4493 24.8898 4.61244 24.0416 3.58037 24.0496C2.5505 24.058 1.72756 24.8839 1.72316 25.9145C1.7184 26.944 2.55123 27.7871 3.57414 27.7886C4.61317 27.79 5.44637 26.9693 5.44783 25.9431Z" fill="#219EBC"/>
<path d="M2.67978 18.7705C2.67905 18.0318 2.05827 17.4125 1.32689 17.4198C0.607962 17.4268 -0.00146233 18.0413 2.63569e-06 18.7573C0.00183384 19.4711 0.616385 20.0842 1.33385 20.0879C2.04985 20.0908 2.68052 19.4737 2.67978 18.7705Z" fill="#219EBC"/>
<path d="M7.03761 13.1919C7.77303 13.1897 8.36707 12.5737 8.35974 11.82C8.35315 11.0999 7.73567 10.4704 7.01381 10.5209C6.23701 10.5747 5.75907 11.0193 5.71842 11.9005C5.68655 12.5924 6.33297 13.1941 7.03761 13.1919Z" fill="#219EBC"/>
<path d="M20.0477 8.10296C20.704 8.09746 21.2596 7.49903 21.2603 6.79767C21.2607 6.00806 20.7109 5.45394 19.9298 5.4554C19.2116 5.45723 18.6333 6.03809 18.6256 6.76471C18.6175 7.55469 19.2079 8.11028 20.0477 8.10296Z" fill="#219EBC"/>
<path d="M7.04597 1.90622C7.4741 1.91025 7.88466 1.50738 7.8766 1.0917C7.86818 0.661368 7.50303 0.299157 7.0738 0.296227C6.59439 0.292198 6.23914 0.624744 6.24024 1.07632C6.2417 1.52863 6.60391 1.90183 7.04597 1.90622Z" fill="#219EBC"/>
<path d="M2.11993 13.5039C2.52902 13.4995 2.89014 13.1622 2.89343 12.7809C2.8971 12.3513 2.53085 11.984 2.10785 11.9924C1.71487 12.0008 1.38086 12.3528 1.38086 12.7593C1.38086 13.1706 1.7156 13.5083 2.11993 13.5039Z" fill="#219EBC"/>
<path d="M14.0331 7.55358C14.4627 7.54552 14.7883 7.20529 14.778 6.77495C14.7689 6.38344 14.4001 6.03258 14.0148 6.0487C13.5808 6.06664 13.264 6.40139 13.2731 6.83209C13.2816 7.22946 13.6313 7.56127 14.0331 7.55358Z" fill="#219EBC"/>
<path d="M4.36993 8.35399C4.77207 8.35619 5.11816 8.01156 5.12073 7.60723C5.12366 7.16042 4.80613 6.83739 4.36554 6.83922C3.94986 6.84105 3.63855 7.16371 3.63965 7.59185C3.64075 8.00497 3.9733 8.35216 4.36993 8.35399Z" fill="#219EBC"/>
<path d="M15.8995 4.03065C16.2961 4.03761 16.6499 3.71312 16.6521 3.33956C16.6554 2.85429 16.3272 2.51881 15.8574 2.5265C15.4798 2.53236 15.167 2.87516 15.167 3.28206C15.167 3.7025 15.4809 4.02333 15.8995 4.03065Z" fill="#219EBC"/>
<path d="M27.9378 37.7146C27.5847 37.7626 27.2221 37.7509 26.864 37.7524C25.5495 37.7564 24.2355 37.7502 22.921 37.7571C22.1087 37.7615 22.1706 37.6278 22.1684 38.4878C22.1618 40.7581 22.1607 43.0281 22.1574 45.2984C22.1574 45.4727 22.1574 45.647 22.1574 45.8529C20.7305 45.8195 19.5175 45.3841 18.4998 44.4806C17.2439 43.3657 16.5675 41.9645 16.5649 40.2648C16.5612 37.7406 16.5678 35.2165 16.5492 32.6924C16.5462 32.2745 16.6535 32.1335 17.0956 32.1361C20.3811 32.1533 23.6667 32.1416 26.9526 32.1449C28.0579 32.146 29.0054 31.2791 29.0306 30.2247C29.0596 29.0296 28.1817 28.0781 27.0017 28.0671C25.3741 28.0525 23.7458 28.0605 22.1178 28.0664C19.2894 28.0778 16.8107 25.8049 16.5726 22.9925C16.54 22.6061 16.5993 22.4384 17.0524 22.4413C20.4727 22.4622 23.893 22.4311 27.3126 22.4651C30.3963 22.4962 33.1311 24.6245 34.1558 27.4002C35.8698 32.0438 32.8494 37.0492 27.9378 37.7146ZM41.032 25.0409C40.8664 24.753 40.6866 24.4692 40.4914 24.1886C39.1546 22.267 37.7318 20.3845 35.9317 18.8683C34.0892 17.3165 31.8108 16.2156 29.5016 15.5611C29.4174 15.5369 29.0138 15.4857 28.9753 15.4198C28.6937 14.9414 28.3505 14.5038 27.9528 14.1207C26.9039 13.1117 25.5268 12.5246 24.0747 12.4668C22.261 12.3946 20.5306 13.115 19.3278 14.4426C18.5664 15.2831 18.0738 16.298 17.8742 17.4077C17.8951 17.2916 16.9429 16.8272 16.8242 16.7672C15.8295 16.265 14.7253 15.9882 13.6079 16.0508C12.6066 16.1064 11.3929 16.2973 10.4842 16.7316C10.0447 16.9415 9.65578 17.2363 9.24376 17.493C8.49553 17.9593 7.83154 18.8386 7.39791 19.5901C6.96355 20.3428 6.66946 21.1734 6.52845 22.0308C6.19994 24.0279 6.69729 26.0155 7.87109 27.5452C6.81998 27.7672 5.84578 28.2579 5.04188 28.9824C3.82377 30.0804 3.12901 31.5834 3.08579 33.2143C3.04184 34.8708 3.63003 36.4218 4.7423 37.5806C5.09865 37.952 5.50335 38.2761 5.9432 38.5434C6.61965 38.954 6.72549 40.0502 7.002 40.731C7.40157 41.7136 7.89123 42.6593 8.47392 43.5456C12.2652 49.312 17.7182 52.3214 24.3244 52.321C24.9071 52.321 25.4997 52.2972 26.1 52.2504C28.6146 52.0533 30.982 51.3692 33.1366 50.217C35.2055 49.1106 37.0839 47.5683 38.7192 45.6335C41.1649 42.7402 42.6031 39.3525 42.9936 35.5644C43.1928 33.6322 43.1097 31.672 42.7167 29.7687C42.3658 28.0704 41.878 26.5066 41.032 25.0409Z" fill="#219EBC"/>
<path d="M70.3269 25.7079C68.7656 24.2279 66.6095 23.4877 63.858 23.4877H48.2583V27.6856H63.74C64.2117 27.6856 64.4476 27.7061 64.4476 27.746C65.2222 27.746 65.9525 27.9881 66.6373 28.4712C67.435 29.1656 67.8335 29.9409 67.8335 30.7964C67.8108 31.0078 67.7661 31.27 67.6987 31.5817C67.0812 33.1217 65.9016 33.8919 64.1612 33.8919H48.2583V38.0898H57.8271C59.8037 38.0898 61.4038 38.4772 62.6281 39.2522C64.7732 40.6516 65.8459 42.5388 65.8459 44.9146V45.2468H70.748C70.748 42.0356 69.7259 39.4536 67.6819 37.5005C68.4905 37.2591 69.3889 36.7156 70.3774 35.87C71.916 34.3501 72.6854 32.795 72.6854 31.2041V30.5848C72.6854 29.5483 72.3822 28.4862 71.7757 27.3988C71.5061 26.8553 71.0231 26.2917 70.3269 25.7079Z" fill="#219EBC"/>
<path d="M84.0153 23.8351C82.948 24.1068 82.1115 24.3939 81.505 24.6961C80.6631 24.9979 79.579 25.7278 78.2539 26.8855C76.0638 29.0697 74.9688 31.4708 74.9688 34.088V34.7223C74.9688 36.5945 75.5976 38.4268 76.8556 40.2185C77.361 41.0846 78.366 42.0508 79.8712 43.1176C81.9486 44.5368 84.4925 45.2466 87.5026 45.2466H91.5624V41.0337H88.1765C86.4467 41.0337 85.2282 40.8729 84.5207 40.5506C83.8131 40.3796 82.9707 39.8764 81.9936 39.041C80.5338 37.6215 79.8039 36.066 79.8039 34.3747C79.8039 33.0061 80.343 31.632 81.4212 30.2523C82.4206 29.1053 83.6446 28.3552 85.0935 28.0029C85.363 27.8216 86.7108 27.7311 89.1364 27.7311H90.1809L94.5275 27.7161V45.2466H99.3963V23.4728H88.1765C86.357 23.4728 84.9697 23.5937 84.0153 23.8351Z" fill="#219EBC"/>
<path d="M110.873 40.0675C108.414 38.7592 107.184 36.6651 107.184 33.7864V23.5031H102.298V33.2876C102.298 35.2206 102.501 36.7054 102.905 37.7422C103.377 39.1116 104.281 40.4703 105.617 41.8192C106.65 42.715 107.425 43.279 107.942 43.5101C109.795 44.6682 112.26 45.2468 115.338 45.2468H126.726V41.0189H115.169C113.384 41.0189 111.951 40.7018 110.873 40.0675Z" fill="#219EBC"/>
<path d="M136.965 40.0675C134.505 38.7592 133.276 36.6651 133.276 33.7864V23.5031H128.39V33.2876C128.39 35.2206 128.592 36.7054 128.997 37.7422C129.468 39.1116 130.372 40.4703 131.709 41.8192C132.742 42.715 133.517 43.279 134.034 43.5101C135.887 44.6682 138.352 45.2468 141.429 45.2468H152.817V41.0189H141.261C139.475 41.0189 138.043 40.7018 136.965 40.0675Z" fill="#219EBC"/>
<path d="M162.628 23.8053C161.112 24.0371 159.416 24.7868 157.54 26.0555C154.677 28.3503 153.245 31.1187 153.245 34.36C153.245 35.8601 153.559 37.2741 154.188 38.6029C155.479 41.2607 157.619 43.1735 160.606 44.3407C161.943 44.945 163.998 45.2468 166.772 45.2468H177.621V41.0189H166.233C164.728 41.0189 163.543 40.8432 162.679 40.4908C161.892 40.2389 161.05 39.7258 160.152 38.9504C158.781 37.5111 158.096 35.9707 158.096 34.3296C158.096 33.8567 158.18 33.2931 158.349 32.6386C159.113 30.706 160.213 29.4022 161.651 28.7275C162.706 28.0537 164.256 27.7164 166.3 27.7164H177.621V23.4881H166.991C164.857 23.4881 163.403 23.594 162.628 23.8053Z" fill="#219EBC"/>
<path d="M164.936 36.4585H177.621V32.276H164.936V36.4585Z" fill="#219EBC"/>
<path d="M204.494 31.3099C204.213 30.4745 203.916 29.8098 203.602 29.3168C203.388 28.9041 203.04 28.4056 202.557 27.8218C199.929 24.9428 196.672 23.5035 192.786 23.5035C188.9 23.5035 185.649 24.9428 183.032 27.8218C182.538 28.3954 182.184 28.8938 181.971 29.3168C181.656 29.8098 181.359 30.4745 181.078 31.3099C180.741 32.3163 180.573 33.6853 180.573 35.4169V45.2468H185.458V34.9489C185.458 31.4857 187.204 29.1707 190.697 28.0031C191.483 27.8017 192.18 27.6962 192.786 27.6856C193.393 27.6962 194.095 27.8017 194.892 28.0031C198.384 29.1707 200.131 31.4857 200.131 34.9489V45.2468H205V35.4169C205 33.6853 204.831 32.3163 204.494 31.3099Z" fill="#219EBC"/>
</svg>
