<svg width="400" height="400" viewBox="0 0 400 400" fill="none" xmlns="http://www.w3.org/2000/svg">
<rect width="400" height="400" fill="#219EBC"/>
<path d="M156.277 119.558C156.251 125.651 161.177 130.637 167.231 130.646C173.376 130.654 178.308 125.798 178.315 119.727C178.324 113.497 173.374 108.478 167.266 108.526C161.172 108.576 156.303 113.462 156.277 119.558Z" fill="white"/>
<path d="M105.24 197.744C105.248 191.512 100.297 186.494 94.1906 186.541C88.0973 186.591 83.2283 191.478 83.2023 197.575C83.1741 203.666 88.1016 208.655 94.1538 208.663C100.301 208.672 105.231 203.816 105.24 197.744Z" fill="white"/>
<path d="M88.8552 155.307C88.8509 150.936 85.178 147.272 80.8507 147.315C76.5971 147.356 72.9913 150.992 73 155.229C73.0109 159.452 76.6469 163.079 80.8919 163.101C85.1282 163.118 88.8596 159.467 88.8552 155.307Z" fill="white"/>
<path d="M114.633 122.301C118.984 122.288 122.499 118.643 122.456 114.184C122.417 109.923 118.763 106.198 114.492 106.498C109.896 106.816 107.069 109.447 106.828 114.66C106.639 118.754 110.464 122.314 114.633 122.301Z" fill="white"/>
<path d="M191.61 92.1895C195.493 92.157 198.78 88.6163 198.784 84.4667C198.787 79.7948 195.534 76.5163 190.912 76.525C186.663 76.5358 183.241 79.9725 183.196 84.2717C183.148 88.9457 186.641 92.2329 191.61 92.1895Z" fill="white"/>
<path d="M114.691 55.5262C117.224 55.55 119.653 53.1664 119.605 50.707C119.555 48.1609 117.395 46.0178 114.855 46.0005C112.019 45.9766 109.917 47.9442 109.923 50.616C109.932 53.2921 112.075 55.5002 114.691 55.5262Z" fill="white"/>
<path d="M85.5413 124.146C87.9617 124.12 90.0983 122.124 90.1178 119.869C90.1394 117.327 87.9725 115.153 85.4698 115.203C83.1447 115.253 81.1685 117.335 81.1685 119.741C81.1685 122.174 83.149 124.172 85.5413 124.146Z" fill="white"/>
<path d="M156.034 88.9416C158.575 88.8939 160.502 86.8809 160.441 84.3348C160.387 82.0184 158.205 79.9425 155.925 80.0378C153.357 80.144 151.483 82.1245 151.537 84.6728C151.587 87.0239 153.657 88.9871 156.034 88.9416Z" fill="white"/>
<path d="M98.856 93.6772C101.235 93.6902 103.283 91.6511 103.298 89.2589C103.315 86.6152 101.437 84.704 98.83 84.7149C96.3705 84.7257 94.5287 86.6347 94.5352 89.1679C94.5417 91.6121 96.5092 93.6663 98.856 93.6772Z" fill="white"/>
<path d="M167.071 68.096C169.418 68.1372 171.511 66.2173 171.524 64.0071C171.544 61.1359 169.602 59.1511 166.822 59.1966C164.588 59.2312 162.737 61.2595 162.737 63.6669C162.737 66.1545 164.594 68.0527 167.071 68.096Z" fill="white"/>
<path d="M238.304 267.392C236.215 267.675 234.07 267.606 231.951 267.615C224.174 267.639 216.399 267.602 208.622 267.643C203.816 267.669 204.182 266.878 204.169 271.966C204.13 285.399 204.123 298.829 204.104 312.262C204.104 313.293 204.104 314.325 204.104 315.542C195.662 315.345 188.485 312.769 182.463 307.423C175.033 300.827 171.03 292.536 171.015 282.48C170.994 267.545 171.033 252.611 170.922 237.677C170.905 235.204 171.54 234.37 174.155 234.385C193.594 234.487 213.034 234.418 232.475 234.437C239.015 234.444 244.621 229.315 244.77 223.076C244.941 216.006 239.747 210.376 232.765 210.311C223.136 210.224 213.502 210.272 203.87 210.307C187.135 210.374 172.469 196.926 171.061 180.286C170.868 178 171.219 177.008 173.899 177.025C194.136 177.149 214.373 176.965 234.605 177.166C252.85 177.35 269.031 189.942 275.094 206.365C285.235 233.839 267.364 263.454 238.304 267.392ZM315.777 192.406C314.798 190.703 313.734 189.023 312.579 187.364C304.67 175.994 296.251 164.856 285.601 155.885C274.699 146.704 261.219 140.19 247.557 136.318C247.058 136.175 244.67 135.871 244.443 135.481C242.777 132.651 240.746 130.062 238.393 127.795C232.187 121.826 224.039 118.352 215.448 118.01C204.717 117.583 194.478 121.845 187.362 129.7C182.857 134.673 179.943 140.678 178.762 147.243C178.885 146.556 173.251 143.809 172.549 143.453C166.664 140.483 160.131 138.844 153.52 139.215C147.595 139.544 140.414 140.673 135.038 143.243C132.438 144.485 130.137 146.229 127.699 147.748C123.272 150.507 119.343 155.709 116.778 160.156C114.208 164.609 112.468 169.523 111.633 174.596C109.69 186.412 112.632 198.172 119.577 207.223C113.358 208.536 107.594 211.44 102.838 215.726C95.6309 222.223 91.5203 231.115 91.2646 240.765C91.0045 250.566 94.4846 259.742 101.065 266.599C103.174 268.796 105.568 270.713 108.171 272.295C112.173 274.724 112.799 281.21 114.435 285.238C116.799 291.052 119.696 296.647 123.144 301.891C145.576 336.009 177.839 353.814 216.925 353.812C220.373 353.812 223.879 353.671 227.431 353.394C242.309 352.228 256.315 348.18 269.063 341.363C281.304 334.817 292.418 325.692 302.093 314.244C316.564 297.126 325.073 277.082 327.383 254.67C328.562 243.237 328.07 231.64 325.745 220.378C323.669 210.331 320.783 201.078 315.777 192.406Z" fill="white"/>
</svg>
