<svg id="logo" xmlns="http://www.w3.org/2000/svg" xmlns:xlink="http://www.w3.org/1999/xlink" width="214.713" height="68.871" viewBox="0 0 214.713 68.871">
  <defs>
    <clipPath id="clip-path">
      <rect id="Rectangle_5848" data-name="Rectangle 5848" width="214.713" height="68.871" fill="none"/>
    </clipPath>
  </defs>
  <path id="Path_41" data-name="Path 41" d="M328.049,77.12v7.311h4.089v3.511h-4.089v15.778h-4.254V87.941h-3.469V84.431h3.469V77.12Z" transform="translate(-245.916 -59.206)" fill="#000"/>
  <g id="Group_16" data-name="Group 16">
    <g id="Group_15" data-name="Group 15" clip-path="url(#clip-path)">
      <path id="Path_42" data-name="Path 42" d="M385.567,126.515h-4.254V107.226h4.254v4.419c.95-3.222,2.685-4.833,5.287-4.833a6.3,6.3,0,0,1,3.428.744l-.7,3.924a6.032,6.032,0,0,0-2.85-.661c-3.47,0-5.163,3.345-5.163,8.756Z" transform="translate(-292.737 -82.001)" fill="#000"/>
      <path id="Path_43" data-name="Path 43" d="M454.305,126.515v-2.767c-1.2,1.982-3.965,3.18-6.484,3.18a10.057,10.057,0,0,1,0-20.114,7.765,7.765,0,0,1,6.484,3.139v-2.726h4.213v19.288Zm-1.859-13.96a5.982,5.982,0,0,0-4.13-1.611A5.828,5.828,0,0,0,444.1,112.6a5.6,5.6,0,0,0-1.693,4.213,5.79,5.79,0,0,0,5.906,5.989,5.759,5.759,0,0,0,5.948-5.989,5.375,5.375,0,0,0-1.817-4.254" transform="translate(-336.281 -82.002)" fill="#000"/>
      <path id="Path_44" data-name="Path 44" d="M557.3,110.159,554,112.8a5.447,5.447,0,0,0-4.337-1.859,6.022,6.022,0,0,0-4.3,1.652,5.375,5.375,0,0,0-1.776,4.213,5.639,5.639,0,0,0,1.776,4.337,6.128,6.128,0,0,0,4.3,1.693,5.466,5.466,0,0,0,4.337-1.9l3.345,2.6a9.481,9.481,0,0,1-7.682,3.387,10.346,10.346,0,0,1-7.269-2.809,9.565,9.565,0,0,1-3.015-7.31,9.437,9.437,0,0,1,2.974-7.228,10.41,10.41,0,0,1,7.311-2.768,9.546,9.546,0,0,1,7.641,3.346" transform="translate(-414.086 -82.001)" fill="#000"/>
      <path id="Path_45" data-name="Path 45" d="M641.425,93.208l-8.219-8.963v8.963h-4.213V63.429h4.213V80.28l6.113-6.36h5.7L636.8,82.3l10.078,10.9Z" transform="translate(-482.883 -48.695)" fill="#000"/>
      <path id="Path_46" data-name="Path 46" d="M714.309,66.113A2.684,2.684,0,0,1,711.5,68.8a2.69,2.69,0,1,1,0-5.37,2.684,2.684,0,0,1,2.809,2.685m-4.915,7.806h4.213V93.208h-4.213Z" transform="translate(-544.037 -48.694)" fill="#000"/>
      <path id="Path_47" data-name="Path 47" d="M752.731,126.515h-4.254V107.226h4.254v2.891a6.659,6.659,0,0,1,5.906-3.3c4.667,0,7.352,3.015,7.352,8.467v11.234h-4.254V115.776c0-3.015-1.57-4.791-4.048-4.791-2.809,0-4.956,1.652-4.956,5.163Z" transform="translate(-574.612 -82.001)" fill="#000"/>
      <path id="Path_48" data-name="Path 48" d="M840.73,128.951a6.19,6.19,0,0,0,5.411,3.222c4.3,0,6.443-2.52,6.443-7.6v-.991c-1.115,2.106-3.841,3.345-6.526,3.345a9.5,9.5,0,0,1-6.9-2.767,9.644,9.644,0,0,1-2.85-7.228,9.769,9.769,0,0,1,2.85-7.311,9.543,9.543,0,0,1,6.9-2.809c2.685,0,5.369,1.239,6.526,3.263v-2.85h4.172v16.438c0,8.3-3.552,12.474-10.615,12.474a9.953,9.953,0,0,1-8.921-5.411l1.735-.908Zm5.824-18.008a5.786,5.786,0,0,0-5.865,5.948,5.787,5.787,0,0,0,1.693,4.3,5.665,5.665,0,0,0,4.171,1.652,6.056,6.056,0,0,0,4.13-1.611,5.988,5.988,0,0,0-4.13-10.284" transform="translate(-642.043 -82.001)" fill="#000"/>
      <path id="Path_49" data-name="Path 49" d="M23.487,68.871c-3.217,0-6.219-1.537-8.931-4.577l-.04-.046C4.884,52.75,0,41.624,0,31.18a31.2,31.2,0,0,1,62.405,0c0,10.435-4.887,21.561-14.527,33.068L44.9,61.75c9.037-10.788,13.619-21.073,13.619-30.57a27.314,27.314,0,0,0-54.627,0c0,9.5,4.571,19.776,13.588,30.546,2.045,2.283,4.2,3.374,6.387,3.244,4.545-.27,8.337-5.523,8.374-5.576l.1-.135A7.023,7.023,0,0,0,34.324,55a3.121,3.121,0,0,0-6.242,0,7.018,7.018,0,0,0,1.981,4.26l-2.981,2.5A10.683,10.683,0,0,1,24.193,55a7.01,7.01,0,0,1,14.02,0,10.634,10.634,0,0,1-2.841,6.7c-.567.786-5.094,6.788-11.277,7.156q-.3.018-.608.018" fill="#00abbe"/>
      <path id="Path_50" data-name="Path 50" d="M131.235,232.343a1.339,1.339,0,1,1-1.339-1.338,1.339,1.339,0,0,1,1.339,1.338" transform="translate(-98.694 -177.344)" fill="#f99e4b"/>
      <path id="Path_51" data-name="Path 51" d="M113.239,91.386a9.149,9.149,0,1,1-9.149-9.141,9.145,9.145,0,0,1,9.149,9.141" transform="translate(-72.888 -63.14)" fill="#f99e4b"/>
    </g>
  </g>
</svg>
