<svg width="2500" height="552" viewBox="0 0 2500 552" fill="none" xmlns="http://www.w3.org/2000/svg">
    <path d="M109.197 276.515C152.424 276.515 188.862 288.712 215.86 314.332C244.235 340.002 257.708 372.409 257.708 410.226C257.708 449.369 242.908 481.776 214.533 507.447C186.158 533.117 149.719 546.59 106.544 546.59H11.9766V276.515H109.197ZM71.4318 496.627H110.575C136.246 496.627 157.833 488.513 174.011 472.335C190.189 456.157 199.682 435.896 199.682 411.604C199.682 387.311 191.567 366.999 174.011 350.821C157.833 334.592 136.246 326.478 110.575 326.478H71.3808L71.4318 496.627ZM286.083 276.515H403.616C434.696 276.515 458.988 284.681 476.595 302.186C495.478 319.741 504.92 341.329 504.92 368.377C504.92 395.426 495.478 418.34 476.544 435.896C457.61 453.452 431.991 462.893 402.289 462.893H345.539V549.295H286.083V276.515ZM345.539 326.529V414.308H398.206C413.006 414.308 423.826 410.226 433.267 402.111C442.708 393.997 446.791 383.228 446.791 371.082C446.791 358.936 442.708 348.117 433.267 340.002C423.826 331.888 413.057 327.856 398.206 327.856H345.539V326.529ZM1216.44 313.005C1243.49 340.002 1256.96 372.409 1256.96 411.553C1256.96 450.696 1243.44 484.481 1215.12 511.478C1188.07 538.527 1153.01 552 1113.81 552C1073.34 552 1039.56 538.476 1012.56 512.856C985.512 485.808 972.039 453.452 972.039 414.257C972.039 375.063 985.563 341.329 1013.89 314.332C1040.94 287.334 1076.05 273.861 1115.19 273.861C1155.71 273.861 1189.45 286.008 1216.44 313.005ZM1174.6 473.662C1190.82 457.484 1198.89 437.223 1198.89 412.931C1198.89 388.638 1190.82 368.377 1174.6 352.199C1158.37 336.021 1139.48 327.856 1115.19 327.856C1090.9 327.856 1070.64 335.97 1055.79 352.148C1039.56 368.377 1032.82 388.638 1032.82 412.88C1032.82 437.121 1040.94 457.484 1055.79 473.662C1071.96 489.891 1090.9 498.005 1115.19 498.005C1138.16 498.005 1158.42 489.84 1174.6 473.662ZM1290.7 276.515H1412.26C1440.59 276.515 1464.93 284.681 1482.49 300.859C1500.04 317.037 1509.48 338.624 1509.48 364.295C1509.48 383.177 1504.07 400.784 1494.63 414.308C1484.14 428.639 1469.55 439.456 1452.78 445.337L1521.63 546.59H1452.73L1392 453.452H1350.15V546.59H1290.7V276.515ZM1350.15 326.529V408.848H1404.15C1419 408.848 1429.82 404.816 1437.88 398.079C1446.05 389.965 1450.08 380.524 1450.08 368.377C1450.08 356.231 1446 346.739 1437.88 338.675C1429.77 330.612 1419 327.856 1404.15 327.856H1350.15V326.529ZM1554.04 547.968V276.464H1613.44V495.249H1745.77V547.968H1554.04ZM1871.37 276.515C1914.55 276.515 1950.98 288.712 1978.03 314.332C2006.36 340.002 2019.88 372.409 2019.88 410.226C2019.88 449.369 2005.03 481.776 1976.65 507.447C1948.28 533.117 1911.84 546.59 1868.67 546.59H1774.15V276.515H1871.37ZM1833.55 496.627H1872.7C1898.37 496.627 1919.96 488.513 1936.18 472.335C1952.41 456.157 1961.8 435.896 1961.8 411.604C1961.8 387.311 1953.74 366.999 1936.18 350.821C1919.96 334.592 1898.37 326.478 1872.7 326.478H1833.55V496.627ZM722.276 466.925L661.494 276.566H596.68L688.542 547.968H747.895L784.385 425.077L823.528 547.968H882.933L973.417 276.515H912.686L854.557 458.811V460.189L796.582 276.464H738.403L759.99 345.361L722.276 466.925Z" fill="#003764"/>
    <path d="M2198.09 163.116H2202.18C2207.59 163.116 2213 163.116 2219.73 159.034C2225.14 156.38 2231.88 153.675 2238.61 150.97C2238.61 155.053 2235.91 157.707 2233.21 161.789C2225.14 171.231 2215.65 173.936 2204.88 173.936H2194.06C2191.36 173.936 2188.65 173.936 2185.95 175.263C2176.51 176.641 2165.69 179.345 2158.95 172.558C2165.69 169.853 2175.18 165.821 2184.62 163.116H2185.95C2185.95 164.443 2192.73 164.443 2198.09 163.116ZM2181.92 128.005L2183.24 125.3C2185.65 122.038 2188.68 119.286 2192.16 117.202C2195.64 115.117 2199.49 113.741 2203.5 113.154C2209.66 112.234 2215.94 113.694 2221.06 117.236C2219.73 117.236 2218.35 118.563 2218.35 118.563C2206.21 122.646 2196.77 130.709 2183.24 142.856L2172.47 150.97C2164.36 156.38 2157.62 161.789 2153.59 164.443C2150.84 153.675 2157.62 148.265 2167.06 141.478C2172.89 138.054 2177.94 133.468 2181.92 128.005ZM2142.77 186.082C2136.9 179.323 2133.54 170.74 2133.28 161.789C2133.28 156.38 2134.66 149.592 2137.36 144.234C2139.5 141.132 2142.31 138.549 2145.57 136.677C2148.84 134.804 2152.49 133.689 2156.24 133.414C2161.78 133.539 2167.28 132.621 2172.47 130.709C2171.1 132.036 2168.39 134.792 2164.36 137.446C2153.54 144.234 2144.1 150.97 2150.84 168.526C2157.62 184.704 2175.18 181.999 2185.95 179.294H2190.03C2188.65 180.672 2185.95 181.999 2184.62 184.704C2181.62 188.137 2177.94 190.902 2173.8 192.819C2168.64 195.433 2162.74 196.19 2157.09 194.963C2151.44 193.736 2146.38 190.6 2142.77 186.082Z" fill="#003764"/>
    <path d="M2063.11 140.202C2063.11 145.561 2064.43 150.919 2065.81 156.38C2095.51 122.595 2141.39 98.3025 2194.06 92.8929C2218.35 90.188 2241.32 92.8929 2262.96 98.3025C2249.76 82.9596 2233.39 70.6649 2214.97 62.2678C2196.55 53.8707 2176.54 49.5713 2156.3 49.6666C2125.17 49.6666 2096.84 59.159 2073.88 76.7149C2065.74 96.8319 2062.06 118.526 2063.11 140.202Z" fill="#00956D"/>
    <path d="M2061.73 159.085C2060.4 153.675 2060.4 146.887 2059.02 141.529C2057.62 121.347 2060.38 101.091 2067.14 82.0225C2051.62 95.1508 2039.12 111.479 2030.49 129.889C2021.87 148.299 2017.33 168.356 2017.18 188.685C2017.18 206.292 2019.88 222.47 2025.29 237.321C2041.47 222.521 2057.7 208.996 2073.88 195.472C2068.62 183.761 2064.55 171.554 2061.73 159.034V159.085Z" fill="#CC003D"/>
    <path d="M2134.66 252.223H2131.95C2164.36 273.862 2211.62 283.303 2258.88 279.271H2260.25C2282.79 253.971 2295.26 221.288 2295.31 187.409C2294.95 173.752 2293.15 160.17 2289.96 146.888C2264.29 203.638 2206.26 246.813 2134.66 252.223Z" fill="black"/>
    <path d="M2191.36 160.412H2202.18C2207.59 160.412 2211.62 160.412 2218.35 157.707C2239.99 146.888 2264.29 141.529 2284.55 138.824C2283.17 134.741 2280.46 130.71 2279.14 126.678C2241.37 132.037 2217.03 140.151 2191.36 160.412ZM2187.27 144.234C2199.47 138.824 2213 136.068 2223.76 133.415L2227.85 132.037C2244.74 127.531 2261.86 123.936 2279.14 121.268L2271.02 109.122C2254.05 112.348 2237.35 116.852 2221.06 122.595C2208.91 125.3 2200.75 132.037 2187.27 144.234ZM2130.63 163.117C2114.4 172.558 2096.84 186.082 2076.58 200.882C2061.78 213.079 2044.17 227.931 2028 242.782C2030.7 248.191 2032.08 252.223 2034.73 257.633C2050.96 241.455 2067.14 226.604 2084.69 214.406C2100.87 200.933 2117.1 190.114 2133.28 179.295C2131.95 173.936 2130.63 168.526 2130.63 163.117ZM2138.69 184.704L2137.36 183.377C2119.81 194.197 2103.58 206.343 2088.73 218.489C2071.26 232.398 2054.58 247.273 2038.76 263.042C2041.47 267.125 2044.17 272.484 2048.26 276.515C2060.4 263.042 2077.96 246.813 2098.22 230.584C2113.02 218.489 2130.63 206.343 2148.18 194.197C2146.02 193.377 2144.05 192.107 2142.41 190.471C2140.78 188.834 2139.51 186.869 2138.69 184.704Z" fill="#003764"/>
    <path d="M2076.58 249.518L2077.96 248.191C2076.58 248.191 2076.58 248.191 2076.58 249.518ZM2048.26 276.515L2053.61 271.156C2050.96 272.483 2049.58 275.188 2048.26 276.515ZM2237.29 286.008C2196.77 286.008 2157.62 275.188 2129.25 256.305C2119.65 249.388 2110.62 241.707 2102.25 233.34C2083.37 249.518 2064.48 265.747 2052.29 279.271C2077.96 307.595 2115.77 326.478 2156.25 326.478C2174.84 326.443 2193.24 322.727 2210.39 315.545C2227.54 308.362 2243.1 297.855 2256.17 284.63C2249.43 286.008 2242.7 286.008 2237.29 286.008ZM2077.96 248.191C2079.28 246.813 2080.66 246.813 2082.04 245.486C2079.29 245.486 2079.28 246.813 2077.96 248.191Z" fill="#CC003D"/>
</svg>
