<svg width="56" height="56" viewBox="0 0 56 56" fill="none" xmlns="http://www.w3.org/2000/svg">
    <path d="M37.4531 19.7812C37.8828 19.7812 38.3125 20.2109 38.3125 20.6406V37.8281C38.3125 38.3652 37.8828 38.6875 37.4531 38.6875H20.2656C19.7285 38.6875 19.4062 38.3652 19.4062 37.8281C19.4062 37.3984 19.7285 36.9688 20.2656 36.9688H35.3047L17.9023 19.5664C17.5801 19.2441 17.5801 18.707 17.9023 18.3848C18.2246 18.0625 18.7617 18.0625 19.084 18.3848L36.5938 35.7871V20.6406C36.5938 20.2109 36.916 19.7812 37.4531 19.7812ZM28 0.875C43.1465 0.875 55.5 13.2285 55.5 28.375C55.5 43.6289 43.1465 55.875 28 55.875C12.7461 55.875 0.5 43.6289 0.5 28.375C0.5 13.2285 12.7461 0.875 28 0.875ZM28 54.1562C42.1797 54.1562 53.7812 42.6621 53.7812 28.375C53.7812 14.1953 42.1797 2.59375 28 2.59375C13.7129 2.59375 2.21875 14.1953 2.21875 28.375C2.21875 42.6621 13.7129 54.1562 28 54.1562Z" fill="#219EBC"/>
</svg>
