<svg width="45" height="45" viewBox="0 0 45 45" fill="none" xmlns="http://www.w3.org/2000/svg">
    <circle cx="22.5" cy="22.5" r="21.5" stroke="#219EBC" stroke-width="2"/>
    <path d="M29.0625 21.5627H17.9438L21.3469 17.4752C21.506 17.2837 21.5826 17.0369 21.5597 16.789C21.5369 16.5411 21.4165 16.3125 21.225 16.1533C21.0335 15.9942 20.7867 15.9176 20.5388 15.9405C20.2909 15.9633 20.0623 16.0837 19.9031 16.2752L15.2156 21.9002C15.1841 21.9449 15.1559 21.9919 15.1312 22.0408C15.1312 22.0877 15.1313 22.1158 15.0656 22.1627C15.0231 22.2702 15.0009 22.3846 15 22.5002C15.0009 22.6158 15.0231 22.7302 15.0656 22.8377C15.0656 22.8846 15.0656 22.9127 15.1312 22.9596C15.1559 23.0085 15.1841 23.0555 15.2156 23.1002L19.9031 28.7252C19.9913 28.831 20.1017 28.9161 20.2264 28.9745C20.3512 29.0328 20.4873 29.0629 20.625 29.0627C20.844 29.0631 21.0563 28.9868 21.225 28.8471C21.3199 28.7684 21.3984 28.6717 21.4559 28.5626C21.5134 28.4536 21.5489 28.3342 21.5602 28.2114C21.5715 28.0886 21.5585 27.9648 21.5219 27.8471C21.4853 27.7293 21.4258 27.6199 21.3469 27.5252L17.9438 23.4377H29.0625C29.3111 23.4377 29.5496 23.3389 29.7254 23.1631C29.9012 22.9873 30 22.7488 30 22.5002C30 22.2516 29.9012 22.0131 29.7254 21.8373C29.5496 21.6615 29.3111 21.5627 29.0625 21.5627Z" fill="#219EBC"/>
</svg>
