<svg width="158" height="40" viewBox="0 0 158 40" fill="none" xmlns="http://www.w3.org/2000/svg">
    <path d="M10.8223 9.55887C10.8189 10.3507 11.4589 10.9986 12.2457 10.9998C13.0443 11.0009 13.6852 10.3698 13.686 9.58083C13.6872 8.77127 13.044 8.11911 12.2502 8.12531C11.4584 8.13178 10.8257 8.76676 10.8223 9.55887Z" fill="#219EBC"/>
    <path d="M4.18994 19.719C4.19106 18.9092 3.54763 18.257 2.75412 18.2632C1.96229 18.2697 1.32957 18.9047 1.32619 19.6971C1.32253 20.4886 1.96286 21.1368 2.74933 21.1379C3.5482 21.1391 4.18881 20.508 4.18994 19.719Z" fill="#219EBC"/>
    <path d="M2.06038 14.2044C2.05982 13.6364 1.58253 13.1603 1.02019 13.1659C0.467438 13.1713 -0.00112433 13.6438 2.02648e-06 14.1943C0.00140997 14.7431 0.473914 15.2145 1.02555 15.2173C1.57605 15.2195 2.06094 14.7451 2.06038 14.2044Z" fill="#219EBC"/>
    <path d="M5.40968 9.91528C5.97511 9.91359 6.43184 9.43996 6.42621 8.86045C6.42114 8.30685 5.94639 7.8228 5.39138 7.86166C4.79413 7.90305 4.42666 8.2449 4.3954 8.9224C4.3709 9.45432 4.86791 9.91697 5.40968 9.91528Z" fill="#219EBC"/>
    <path d="M15.4138 6.00239C15.9184 5.99816 16.3456 5.53805 16.3461 4.99881C16.3464 4.3917 15.9237 3.96566 15.3231 3.96679C14.7709 3.9682 14.3263 4.41479 14.3204 4.97346C14.3142 5.58085 14.7681 6.00802 15.4138 6.00239Z" fill="#219EBC"/>
    <path d="M5.41832 1.23801C5.7475 1.24111 6.06316 0.931365 6.05696 0.611763C6.05049 0.280897 5.76974 0.0024066 5.43972 0.000153899C5.07113 -0.00294352 4.79799 0.252738 4.79883 0.599936C4.79996 0.947697 5.07845 1.23464 5.41832 1.23801Z" fill="#219EBC"/>
    <path d="M1.62879 10.155C1.94332 10.1516 2.22097 9.89228 2.2235 9.59914C2.22632 9.26884 1.94473 8.98641 1.6195 8.99288C1.31735 8.99936 1.06055 9.26997 1.06055 9.58253C1.06055 9.89875 1.31792 10.1584 1.62879 10.155Z" fill="#219EBC"/>
    <path d="M10.7895 5.58022C11.1198 5.57403 11.3702 5.31243 11.3623 4.98157C11.3552 4.68055 11.0717 4.41079 10.7754 4.42318C10.4418 4.43697 10.1982 4.69435 10.2052 5.02549C10.2117 5.33102 10.4806 5.58613 10.7895 5.58022Z" fill="#219EBC"/>
    <path d="M3.36032 6.19555C3.6695 6.19724 3.9356 5.93226 3.93757 5.62139C3.93982 5.27785 3.69569 5.02949 3.35694 5.0309C3.03734 5.03231 2.79799 5.28039 2.79883 5.60956C2.79968 5.9272 3.05536 6.19414 3.36032 6.19555Z" fill="#219EBC"/>
    <path d="M12.2253 2.8715C12.5302 2.87685 12.8023 2.62736 12.8039 2.34014C12.8065 1.96704 12.5542 1.7091 12.1929 1.71502C11.9026 1.71952 11.6621 1.98309 11.6621 2.29593C11.6621 2.61919 11.9034 2.86587 12.2253 2.8715Z" fill="#219EBC"/>
    <path d="M21.4806 28.7697C21.2091 28.8066 20.9303 28.7976 20.6549 28.7987C19.6443 28.8018 18.634 28.797 17.6234 28.8024C16.9988 28.8058 17.0464 28.703 17.0447 29.3641C17.0396 31.1097 17.0388 32.855 17.0363 34.6006C17.0363 34.7346 17.0363 34.8686 17.0363 35.0269C15.9392 35.0013 15.0066 34.6664 14.224 33.9718C13.2585 33.1146 12.7384 32.0373 12.7364 30.7304C12.7336 28.7897 12.7387 26.849 12.7243 24.9083C12.7221 24.587 12.8046 24.4786 13.1444 24.4806C15.6706 24.4938 18.1967 24.4848 20.7231 24.4873C21.5729 24.4882 22.3014 23.8217 22.3208 23.011C22.3431 22.0921 21.6681 21.3606 20.7608 21.3521C19.5095 21.3409 18.2575 21.3471 17.0059 21.3516C14.8311 21.3603 12.9254 19.6128 12.7423 17.4504C12.7173 17.1534 12.7629 17.0244 13.1112 17.0267C15.741 17.0427 18.3707 17.0188 20.9999 17.045C23.3709 17.0689 25.4735 18.7052 26.2614 20.8394C27.5792 24.4096 25.2569 28.2581 21.4806 28.7697ZM31.5482 19.0254C31.4209 18.804 31.2826 18.5858 31.1325 18.3701C30.1048 16.8926 29.0108 15.4453 27.6268 14.2795C26.2101 13.0864 24.4584 12.2399 22.6829 11.7368C22.6182 11.7182 22.3079 11.6787 22.2783 11.6281C22.0618 11.2603 21.7979 10.9238 21.4921 10.6293C20.6856 9.85349 19.6269 9.4021 18.5104 9.35761C17.116 9.30214 15.7855 9.85602 14.8607 10.8768C14.2753 11.523 13.8966 12.3033 13.7431 13.1565C13.7591 13.0673 13.027 12.7102 12.9358 12.664C12.171 12.278 11.322 12.0651 10.4629 12.1132C9.69302 12.156 8.75984 12.3027 8.06122 12.6367C7.72331 12.7981 7.42426 13.0247 7.10748 13.2221C6.53219 13.5806 6.02167 14.2567 5.68827 14.8345C5.35431 15.4132 5.1282 16.0518 5.01979 16.711C4.7672 18.2465 5.1496 19.7747 6.05209 20.9509C5.24393 21.1215 4.49491 21.4988 3.87682 22.0558C2.94026 22.9 2.40609 24.0557 2.37286 25.3096C2.33907 26.5832 2.7913 27.7757 3.64648 28.6667C3.92047 28.9522 4.23162 29.2014 4.56981 29.4069C5.0899 29.7226 5.17128 30.5654 5.38388 31.0889C5.69109 31.8444 6.06757 32.5714 6.51558 33.2529C9.43058 37.6865 13.6231 40.0003 18.7024 40C19.1504 40 19.606 39.9817 20.0676 39.9457C22.0009 39.7942 23.8211 39.2682 25.4777 38.3823C27.0684 37.5316 28.5127 36.3458 29.7699 34.8582C31.6504 32.6337 32.7562 30.029 33.0564 27.1165C33.2095 25.6309 33.1456 24.1238 32.8435 22.6604C32.5737 21.3547 32.1986 20.1523 31.5482 19.0254Z" fill="#219EBC"/>
    <path d="M54.0712 19.5381C52.8707 18.4002 51.213 17.8311 49.0975 17.8311H37.1035V21.0587H49.0068C49.3695 21.0587 49.5508 21.0744 49.5508 21.1051C50.1464 21.1051 50.7079 21.2912 51.2344 21.6627C51.8477 22.1966 52.1541 22.7927 52.1541 23.4505C52.1366 23.6129 52.1023 23.8146 52.0505 24.0542C51.5757 25.2383 50.6687 25.8304 49.3306 25.8304H37.1035V29.058H44.4606C45.9803 29.058 47.2105 29.3559 48.1519 29.9518C49.8012 31.0277 50.6259 32.4787 50.6259 34.3054V34.5608H54.395C54.395 32.0918 53.6091 30.1066 52.0375 28.6049C52.6593 28.4194 53.35 28.0015 54.11 27.3513C55.293 26.1827 55.8846 24.9871 55.8846 23.7639V23.2877C55.8846 22.4908 55.6514 21.6742 55.1851 20.8382C54.9779 20.4203 54.6065 19.9869 54.0712 19.5381Z" fill="#219EBC"/>
    <path d="M64.5961 18.0983C63.7756 18.3073 63.1324 18.528 62.6661 18.7603C62.0188 18.9924 61.1853 19.5536 60.1665 20.4437C58.4826 22.1231 57.6406 23.9691 57.6406 25.9814V26.4691C57.6406 27.9086 58.1241 29.3173 59.0914 30.6949C59.48 31.3608 60.2526 32.1037 61.41 32.9239C63.0071 34.0151 64.963 34.5608 67.2774 34.5608H70.3988V31.3217H67.7955C66.4656 31.3217 65.5287 31.1981 64.9847 30.9503C64.4407 30.8188 63.793 30.4319 63.0418 29.7896C61.9194 28.6981 61.3581 27.5022 61.3581 26.2019C61.3581 25.1496 61.7726 24.093 62.6016 23.0323C63.3701 22.1504 64.3112 21.5737 65.4251 21.3028C65.6324 21.1634 66.6686 21.0939 68.5336 21.0939H69.3367L72.6785 21.0823V34.5608H76.422V17.8198H67.7955C66.3966 17.8198 65.3299 17.9128 64.5961 18.0983Z" fill="#219EBC"/>
    <path d="M85.2454 30.5786C83.3543 29.5727 82.4087 27.9626 82.4087 25.7493V17.8429H78.6523V25.3658C78.6523 26.852 78.8078 27.9936 79.1187 28.7908C79.4816 29.8436 80.1766 30.8883 81.2041 31.9254C81.9985 32.6142 82.5943 33.0478 82.9916 33.2255C84.4164 34.1159 86.3118 34.5608 88.6777 34.5608H97.4337V31.3101H88.5482C87.1754 31.3101 86.0742 31.0663 85.2454 30.5786Z" fill="#219EBC"/>
    <path d="M105.306 30.5786C103.415 29.5727 102.469 27.9626 102.469 25.7493V17.8429H98.7129V25.3658C98.7129 26.852 98.8683 27.9936 99.1792 28.7908C99.5419 29.8436 100.237 30.8883 101.264 31.9254C102.059 32.6142 102.655 33.0478 103.052 33.2255C104.477 34.1159 106.372 34.5608 108.738 34.5608H117.494V31.3101H108.608C107.236 31.3101 106.134 31.0663 105.306 30.5786Z" fill="#219EBC"/>
    <path d="M125.039 18.0752C123.873 18.2535 122.569 18.8299 121.127 19.8053C118.925 21.5697 117.824 23.6983 117.824 26.1903C117.824 27.3437 118.066 28.4309 118.55 29.4525C119.542 31.496 121.187 32.9667 123.484 33.8641C124.512 34.3288 126.092 34.5608 128.225 34.5608H136.566V31.3101H127.811C126.653 31.3101 125.742 31.175 125.078 30.9041C124.473 30.7104 123.825 30.3159 123.135 29.7197C122.081 28.6131 121.554 27.4287 121.554 26.1669C121.554 25.8034 121.619 25.37 121.749 24.8668C122.336 23.3809 123.182 22.3785 124.288 21.8598C125.099 21.3416 126.29 21.0823 127.862 21.0823H136.566V17.8314H128.393C126.753 17.8314 125.634 17.9128 125.039 18.0752Z" fill="#219EBC"/>
    <path d="M126.812 27.804H136.566V24.5882H126.812V27.804Z" fill="#219EBC"/>
    <path d="M157.228 23.8452C157.012 23.2029 156.784 22.6919 156.542 22.3128C156.378 21.9955 156.11 21.6123 155.739 21.1634C153.718 18.9498 151.214 17.8432 148.226 17.8432C145.239 17.8432 142.739 18.9498 140.727 21.1634C140.347 21.6044 140.075 21.9876 139.911 22.3128C139.669 22.6919 139.44 23.2029 139.224 23.8452C138.965 24.6191 138.836 25.6716 138.836 27.003V34.5608H142.592V26.6431C142.592 23.9804 143.935 22.2005 146.62 21.3028C147.225 21.1479 147.76 21.0668 148.226 21.0587C148.693 21.0668 149.232 21.1479 149.845 21.3028C152.531 22.2005 153.874 23.9804 153.874 26.6431V34.5608H157.617V27.003C157.617 25.6716 157.487 24.6191 157.228 23.8452Z" fill="#219EBC"/>
</svg>
