<svg width="146" height="38" viewBox="0 0 146 38" fill="none" xmlns="http://www.w3.org/2000/svg">
    <path d="M10.0239 9.67556C10.0208 10.409 10.6137 11.0092 11.3425 11.0103C12.0822 11.0113 12.6759 10.4268 12.6766 9.6959C12.6777 8.946 12.0819 8.34191 11.3466 8.34765C10.6132 8.35365 10.0271 8.94183 10.0239 9.67556Z" fill="white"/>
    <path d="M3.88074 19.0868C3.88178 18.3366 3.28577 17.7325 2.55074 17.7383C1.81727 17.7443 1.23117 18.3324 1.22804 19.0664C1.22465 19.7996 1.81779 20.4001 2.5463 20.4011C3.28629 20.4022 3.87969 19.8176 3.88074 19.0868Z" fill="white"/>
    <path d="M1.90853 13.9785C1.90801 13.4524 1.4659 13.0113 0.945008 13.0166C0.432988 13.0215 -0.00104146 13.4592 1.87713e-06 13.9691C0.00130605 14.4775 0.438988 14.9141 0.949964 14.9167C1.4599 14.9188 1.90906 14.4793 1.90853 13.9785Z" fill="white"/>
    <path d="M5.01162 10.0054C5.53538 10.0038 5.95846 9.56508 5.95324 9.02828C5.94854 8.51548 5.50878 8.0671 4.99467 8.10309C4.44144 8.14144 4.10105 8.45809 4.07209 9.08566C4.0494 9.57838 4.50978 10.0069 5.01162 10.0054Z" fill="white"/>
    <path d="M14.278 6.38105C14.7454 6.37714 15.1411 5.95094 15.1416 5.45144C15.1419 4.88907 14.7504 4.49443 14.194 4.49547C13.6825 4.49678 13.2707 4.91046 13.2652 5.42796C13.2595 5.99058 13.6799 6.38627 14.278 6.38105Z" fill="white"/>
    <path d="M5.01818 1.968C5.32309 1.97087 5.61549 1.68395 5.60975 1.3879C5.60375 1.08142 5.3437 0.823451 5.038 0.821364C4.69657 0.818495 4.44356 1.05533 4.44434 1.37694C4.44538 1.69908 4.70335 1.96487 5.01818 1.968Z" fill="white"/>
    <path d="M1.50928 10.2275C1.80063 10.2244 2.05781 9.98415 2.06016 9.71262C2.06277 9.40666 1.80193 9.14504 1.50067 9.15104C1.22079 9.15704 0.98291 9.4077 0.98291 9.69723C0.98291 9.99015 1.22131 10.2306 1.50928 10.2275Z" fill="white"/>
    <path d="M9.9945 5.9899C10.3005 5.98416 10.5323 5.74184 10.525 5.43536C10.5185 5.15653 10.2559 4.90665 9.98145 4.91812C9.67236 4.93091 9.44674 5.16931 9.45326 5.47605C9.45926 5.75906 9.70836 5.99537 9.9945 5.9899Z" fill="white"/>
    <path d="M3.11239 6.55981C3.39879 6.56137 3.64528 6.31593 3.6471 6.02796C3.64919 5.70974 3.42305 5.47969 3.10926 5.48099C2.81321 5.4823 2.5915 5.71209 2.59229 6.01701C2.59307 6.31123 2.82991 6.5585 3.11239 6.55981Z" fill="white"/>
    <path d="M11.3229 3.48088C11.6054 3.48583 11.8574 3.25473 11.859 2.98868C11.8613 2.64308 11.6276 2.40415 11.2929 2.40963C11.024 2.4138 10.8013 2.65794 10.8013 2.94773C10.8013 3.24717 11.0248 3.47566 11.3229 3.48088Z" fill="white"/>
    <path d="M19.8979 27.4704C19.6465 27.5046 19.3882 27.4962 19.1331 27.4973C18.197 27.5002 17.2611 27.4957 16.325 27.5007C15.7465 27.5038 15.7905 27.4086 15.789 28.021C15.7843 29.638 15.7835 31.2546 15.7811 32.8715C15.7811 32.9957 15.7811 33.1198 15.7811 33.2664C14.7649 33.2427 13.901 32.9326 13.1762 32.2891C12.2818 31.4951 11.8 30.4971 11.7982 29.2866C11.7956 27.4889 11.8003 25.6913 11.787 23.8936C11.7849 23.596 11.8613 23.4955 12.1761 23.4974C14.5161 23.5096 16.856 23.5013 19.1963 23.5036C19.9835 23.5044 20.6582 22.887 20.6762 22.1361C20.6968 21.285 20.0716 20.6073 19.2312 20.5995C18.0721 20.5891 16.9124 20.5948 15.753 20.599C13.7385 20.6071 11.9732 18.9883 11.8037 16.9854C11.7805 16.7102 11.8227 16.5907 12.1454 16.5928C14.5813 16.6077 17.0172 16.5855 19.4527 16.6098C21.6489 16.6319 23.5966 18.1476 24.3264 20.1245C25.5471 23.4316 23.396 26.9965 19.8979 27.4704ZM29.2236 18.4442C29.1057 18.2392 28.9776 18.037 28.8386 17.8372C27.8865 16.4686 26.8732 15.128 25.5912 14.0481C24.2789 12.9429 22.6562 12.1589 21.0117 11.6928C20.9517 11.6755 20.6642 11.639 20.6369 11.5921C20.4363 11.2514 20.1919 10.9397 19.9086 10.6669C19.1616 9.94829 18.1808 9.53016 17.1466 9.48895C15.855 9.43757 14.6225 9.95063 13.7659 10.8962C13.2237 11.4948 12.8728 12.2176 12.7307 13.0079C12.7455 12.9252 12.0674 12.5945 11.9829 12.5517C11.2744 12.1941 10.488 11.9969 9.69221 12.0415C8.97909 12.0811 8.11468 12.217 7.46755 12.5264C7.15454 12.6758 6.87754 12.8858 6.5841 13.0687C6.05121 13.4007 5.57832 14.027 5.26949 14.5622C4.96014 15.0982 4.75069 15.6898 4.65026 16.3004C4.4163 17.7227 4.77051 19.1383 5.60649 20.2278C4.85789 20.3859 4.16407 20.7354 3.59153 21.2513C2.724 22.0333 2.22919 23.1038 2.19841 24.2653C2.16711 25.445 2.58601 26.5497 3.37817 27.3749C3.63196 27.6394 3.92019 27.8703 4.23345 28.0607C4.71521 28.3531 4.79059 29.1338 4.98752 29.6187C5.2721 30.3185 5.62083 30.992 6.03582 31.6232C8.73599 35.73 12.6196 37.8733 17.3245 37.873C17.7395 37.873 18.1615 37.8561 18.589 37.8227C20.3799 37.6824 22.066 37.1951 23.6005 36.3745C25.0739 35.5866 26.4117 34.4882 27.5764 33.1102C29.3182 31.0496 30.3425 28.6369 30.6206 25.9391C30.7625 24.5629 30.7033 23.1669 30.4234 21.8113C30.1735 20.6018 29.8261 19.4881 29.2236 18.4442Z" fill="white"/>
    <path d="M50.0868 18.9192C48.9748 17.8651 47.4393 17.338 45.4796 17.338H34.3696V20.3277H45.3957C45.7316 20.3277 45.8996 20.3423 45.8996 20.3707C46.4513 20.3707 46.9714 20.5431 47.4591 20.8872C48.0272 21.3817 48.311 21.9339 48.311 22.5432C48.2948 22.6937 48.263 22.8805 48.215 23.1024C47.7753 24.1992 46.9351 24.7478 45.6956 24.7478H34.3696V27.7375H41.1845C42.5922 27.7375 43.7318 28.0134 44.6038 28.5654C46.1315 29.562 46.8955 30.9061 46.8955 32.5981V32.8347H50.3867C50.3867 30.5477 49.6588 28.7088 48.203 27.3178C48.779 27.1459 49.4188 26.7588 50.1228 26.1566C51.2185 25.0741 51.7666 23.9666 51.7666 22.8335V22.3924C51.7666 21.6543 51.5506 20.8979 51.1186 20.1234C50.9267 19.7364 50.5826 19.3349 50.0868 18.9192Z" fill="white"/>
    <path d="M59.8355 17.5855C59.0754 17.779 58.4796 17.9835 58.0477 18.1987C57.448 18.4137 56.676 18.9335 55.7323 19.758C54.1725 21.3136 53.3926 23.0237 53.3926 24.8876V25.3394C53.3926 26.6727 53.8404 27.9777 54.7364 29.2537C55.0964 29.8706 55.8121 30.5587 56.8841 31.3185C58.3636 32.3292 60.1753 32.8347 62.3191 32.8347H65.2105V29.8343H62.7991C61.5672 29.8343 60.6994 29.7198 60.1954 29.4903C59.6915 29.3685 59.0916 29.0101 58.3957 28.4151C57.356 27.4041 56.8361 26.2964 56.8361 25.0918C56.8361 24.1171 57.2201 23.1384 57.988 22.1559C58.6998 21.3389 59.5715 20.8047 60.6034 20.5538C60.7953 20.4247 61.7552 20.3603 63.4827 20.3603H64.2266L67.3222 20.3496V32.8347H70.7898V17.3275H62.7991C61.5033 17.3275 60.5152 17.4136 59.8355 17.5855Z" fill="white"/>
    <path d="M78.9636 29.146C77.2119 28.2143 76.336 26.7228 76.336 24.6727V17.3489H72.8564V24.3174C72.8564 25.6941 73.0004 26.7515 73.2884 27.4899C73.6246 28.4652 74.2683 29.4329 75.2201 30.3936C75.956 31.0316 76.5079 31.4332 76.8759 31.5978C78.1957 32.4226 79.9514 32.8347 82.143 32.8347H90.2536V29.8236H82.023C80.7514 29.8236 79.7313 29.5978 78.9636 29.146Z" fill="white"/>
    <path d="M97.5454 29.146C95.7936 28.2143 94.918 26.7228 94.918 24.6727V17.3489H91.4385V24.3174C91.4385 25.6941 91.5825 26.7515 91.8704 27.4899C92.2064 28.4652 92.8501 29.4329 93.8019 30.3936C94.538 31.0316 95.0896 31.4332 95.4577 31.5978C96.7775 32.4226 98.5332 32.8347 100.725 32.8347H108.835V29.8236H100.605C99.3332 29.8236 98.3131 29.5978 97.5454 29.146Z" fill="white"/>
    <path d="M115.823 17.5641C114.743 17.7292 113.535 18.2632 112.199 19.1667C110.16 20.8011 109.14 22.7727 109.14 25.0811C109.14 26.1495 109.364 27.1566 109.812 28.1029C110.731 29.9958 112.255 31.3581 114.383 32.1894C115.335 32.6198 116.799 32.8347 118.774 32.8347H126.501V29.8236H118.391C117.318 29.8236 116.475 29.6984 115.859 29.4475C115.299 29.2681 114.699 28.9026 114.059 28.3504C113.083 27.3254 112.595 26.2283 112.595 25.0595C112.595 24.7227 112.655 24.3213 112.775 23.8552C113.319 22.4788 114.103 21.5502 115.127 21.0697C115.879 20.5898 116.982 20.3496 118.438 20.3496H126.501V17.3382H118.93C117.411 17.3382 116.375 17.4136 115.823 17.5641Z" fill="white"/>
    <path d="M117.466 26.5759H126.501V23.5972H117.466V26.5759Z" fill="white"/>
    <path d="M145.64 22.9089C145.44 22.3139 145.228 21.8405 145.004 21.4894C144.852 21.1955 144.604 20.8405 144.26 20.4247C142.388 18.3743 140.069 17.3492 137.301 17.3492C134.534 17.3492 132.218 18.3743 130.355 20.4247C130.003 20.8332 129.751 21.1882 129.599 21.4894C129.375 21.8405 129.163 22.3139 128.963 22.9089C128.723 23.6257 128.603 24.6007 128.603 25.8339V32.8347H132.082V25.5006C132.082 23.0341 133.326 21.3854 135.814 20.5538C136.374 20.4104 136.869 20.3352 137.301 20.3277C137.734 20.3352 138.233 20.4104 138.801 20.5538C141.288 21.3854 142.532 23.0341 142.532 25.5006V32.8347H146V25.8339C146 24.6007 145.88 23.6257 145.64 22.9089Z" fill="white"/>
</svg>
