<svg width="61" height="61" viewBox="0 0 61 61" fill="none" xmlns="http://www.w3.org/2000/svg">
    <g clip-path="url(#clip0_319_1283)">
        <path d="M31.8516 22.7109L39.4141 29.9297C39.6289 30.1445 39.7578 30.4023 39.7578 30.7031C39.7578 30.9609 39.6289 31.2188 39.4141 31.4336L31.8516 38.6523C31.4648 39.0391 30.7773 39.0391 30.3906 38.6094C30.0039 38.2227 30.0039 37.5352 30.4336 37.1484L36.1484 31.7344H21.5391C20.9375 31.7344 20.5078 31.2617 20.5078 30.7031C20.5078 30.1016 20.9375 29.6719 21.5391 29.6719H36.1484L30.4336 24.2148C30.0039 23.8281 30.0039 23.1406 30.3906 22.7539C30.7773 22.3242 31.4219 22.3242 31.8516 22.7109Z" fill="black"/>
    </g>
    <rect x="1.13281" y="1.91016" width="58" height="58" rx="29" stroke="#D4D4D4" stroke-width="2"/>
    <defs>
        <clipPath id="clip0_319_1283">
            <rect x="0.132812" y="0.910156" width="60" height="60" rx="30" fill="white"/>
        </clipPath>
    </defs>
</svg>
