<svg width="17" height="17" viewBox="0 0 17 17" fill="none" xmlns="http://www.w3.org/2000/svg">
    <path d="M0.5 8.5C0.5 4.09375 4.0625 0.5 8.5 0.5C12.9062 0.5 16.5 4.09375 16.5 8.5C16.5 12.9375 12.9062 16.5 8.5 16.5C4.0625 16.5 0.5 12.9375 0.5 8.5ZM12.0938 7.125C12.4375 6.78125 12.4375 6.25 12.0938 5.90625C11.75 5.5625 11.2188 5.5625 10.875 5.90625L7.5 9.28125L6.09375 7.90625C5.75 7.5625 5.21875 7.5625 4.875 7.90625C4.53125 8.25 4.53125 8.78125 4.875 9.125L6.875 11.125C7.21875 11.4688 7.75 11.4688 8.09375 11.125L12.0938 7.125Z" fill="black"/>
</svg>
